<svg xmlns="http://www.w3.org/2000/svg" version="1.1" xmlns:xlink="http://www.w3.org/1999/xlink" xmlns:svgjs="http://svgjs.com/svgjs" width="1440" height="560" preserveAspectRatio="none" viewBox="0 0 1440 560">
    <g mask="url(&quot;#SvgjsMask4126&quot;)" fill="none">
        <rect width="1440" height="560" x="0" y="0" fill="url(#SvgjsLinearGradient4127)"></rect>
        <path d="M1488 560L0 560 L0 520.05Q54.6 454.64, 120 509.24Q137.47 454.71, 192 472.17Q263.94 424.11, 312 496.05Q357.91 469.96, 384 515.86Q428.35 440.21, 504 484.55Q530.54 439.09, 576 465.62Q606.36 423.98, 648 454.33Q698.01 432.34, 720 482.35Q773.02 463.38, 792 516.4Q819.26 423.66, 912 450.92Q992.31 411.24, 1032 491.55Q1073.55 461.1, 1104 502.64Q1122.3 448.94, 1176 467.23Q1202.86 422.09, 1248 448.95Q1346.16 427.11, 1368 525.27Q1395.31 432.58, 1488 459.89z" fill="rgba(53, 177, 167, 1)"></path>
        <path d="M1512 560L0 560 L0 540.27Q55.92 524.19, 72 580.12Q94.48 482.6, 192 505.07Q233.48 474.55, 264 516.03Q318.82 498.85, 336 553.66Q386.61 484.26, 456 534.87Q538.61 497.48, 576 580.09Q622.93 507.02, 696 553.94Q738.96 476.9, 816 519.86Q900.34 484.2, 936 568.55Q978.05 490.6, 1056 532.64Q1080.87 485.51, 1128 510.38Q1214.96 477.35, 1248 564.31Q1275.58 519.89, 1320 547.47Q1366.76 474.23, 1440 520.99Q1500.74 509.73, 1512 570.47z" fill="rgba(255, 255, 255, 1)"></path>
    </g>
    <defs>
        <mask id="SvgjsMask4126">
            <rect width="1440" height="560" fill="#ffffff"></rect>
        </mask>
        <linearGradient x1="50%" y1="0%" x2="50%" y2="100%" gradientUnits="userSpaceOnUse" id="SvgjsLinearGradient4127">
            <stop stop-color="rgba(255, 255, 255, 0.33)" offset="0.12"></stop>
            <stop stop-color="rgba(137, 208, 202, 1)" offset="1"></stop>
        </linearGradient>
    </defs>
</svg>